<?xml version="1.0" encoding="utf-8"?>
<!-- Generator: Adobe Illustrator 25.3.0, SVG Export Plug-In . SVG Version: 6.00 Build 0)  -->
<svg version="1.1" id="Layer_1" xmlns="http://www.w3.org/2000/svg" xmlns:xlink="http://www.w3.org/1999/xlink" x="0px" y="0px"
	 width="115px" height="146px" viewBox="0 0 115 146" style="enable-background:new 0 0 115 146;" xml:space="preserve">
<style type="text/css">
	.st0{fill:none;stroke:#000000;stroke-miterlimit:10;}
</style>
<path class="st0" d="M15.03,15.39c0,0,22.38-15.37-3.87-14.82c-16.52,0.35-10.3,15.9-3.41,27.39c3.58,5.98,8,11.4,12.97,16.27
	c6.76,6.63,17.31,19.58,5.76,26.94c0,0-4.79,1.51-4.38-2.48c0.41-3.99,3.14-4.95,14.36-2.75c0,0,2.83,0.09-3.37-13.12
	S14.3,8.24,33.62,8.97c19.32,0.73,48.13,6.42,48.13,15.05S78.47,42,53.67,62.55c0,0-10.25,6.15-12.31,27.2c0,0,0.96,10.18-9.3,10.6
	s-14.36,32.62-14.36,32.62s-2.32,6.19,11.08,9.5c9.6,2.37,19.81,2.8,24.83,2.86c1.89,0.02,3.57-1.2,4.14-3.01
	c2.88-9.2,10.46-36.59-0.44-39.94c-13.13-4.04-8.39-16.33-4.19-27.71s15.59-2.75,15.59-2.75s2.37,2.57-0.18,4.13
	c-2.07,1.27-10.3-4.31-5.38-10.46s22.79-15.87,36.19-23.3s24.06-24.77,3.83-28.62S88.68,26.86,88.68,26.86"/>
</svg>
